<?xml version="1.0" encoding="UTF-8" standalone="no"?>
<!DOCTYPE svg PUBLIC "-//W3C//DTD SVG 1.1//EN" "http://www.w3.org/Graphics/SVG/1.1/DTD/svg11.dtd">
<svg width="100%" height="100%" viewBox="0 0 1080 1080" version="1.1" xmlns="http://www.w3.org/2000/svg" xmlns:xlink="http://www.w3.org/1999/xlink" xml:space="preserve" xmlns:serif="http://www.serif.com/" style="fill-rule:evenodd;clip-rule:evenodd;stroke-linejoin:round;stroke-miterlimit:2;">
    <g id="Layer1">
        <path d="M1080,0L0,0L0,1080L1080,1080L1080,0ZM496.278,421.414C514.444,368.26 540.199,314.175 540.199,314.175C540.199,314.175 564.48,365.164 582.519,416.78C607.669,396.221 627.583,381.619 627.583,381.619C627.583,381.619 622.227,490.299 603.457,550.373C637.663,534.367 665.963,523.201 665.963,523.201C665.963,523.201 622.871,659.523 585.138,699.979C576.244,709.515 565.016,715.587 553.157,718.132L553.157,771.702C593.102,773.954 630.344,786.382 662.321,806.425C697.8,784.189 739.731,771.332 784.642,771.332C848.467,771.332 906.275,797.298 948.069,839.232L1028.41,839.232L1028.41,1002.11L51.594,1002.11L51.594,839.232L131.931,839.232C173.725,797.298 231.533,771.332 295.358,771.332C340.269,771.332 382.2,784.189 417.679,806.425C448.581,787.057 484.378,774.805 522.78,771.967L522.78,717.945C510.763,715.189 499.46,708.806 490.652,698.902C453.888,657.564 414.037,520.259 414.037,520.259C414.037,520.259 440.839,531.575 473.649,547.797C454.142,487.517 445.906,384.354 445.906,384.354C445.906,384.354 468.528,399.907 496.278,421.414Z" style="fill:rgb(41,140,0);"/>
    </g>
</svg>
