<?xml version="1.0" encoding="UTF-8" standalone="no"?>
<!DOCTYPE svg PUBLIC "-//W3C//DTD SVG 1.1//EN" "http://www.w3.org/Graphics/SVG/1.1/DTD/svg11.dtd">
<svg width="100%" height="100%" viewBox="0 0 64 64" version="1.1" xmlns="http://www.w3.org/2000/svg" xmlns:xlink="http://www.w3.org/1999/xlink" xml:space="preserve" xmlns:serif="http://www.serif.com/" style="fill-rule:evenodd;clip-rule:evenodd;stroke-linejoin:round;stroke-miterlimit:2;">
    <g transform="matrix(0.1122,0,0,0.1122,3.94993,4.31588)">
        <path d="M483.426,130.026C483.426,65.61 431.128,13.313 366.713,13.313L133.287,13.313C68.872,13.313 16.574,65.61 16.574,130.026L16.574,363.451C16.574,427.867 68.872,480.164 133.287,480.164L366.713,480.164C431.128,480.164 483.426,427.867 483.426,363.451L483.426,130.026ZM76.509,280.183C76.509,293.786 84.788,306.019 97.415,311.077C145.403,330.298 265.488,378.396 345.755,410.546C363.214,417.539 383.006,415.414 398.582,404.874C414.159,394.333 423.491,376.751 423.491,357.943L423.491,357.939C423.491,337.721 410.67,319.727 391.56,313.124C331.158,292.256 206.161,249.07 206.161,249.07L206.161,244.407C206.161,244.407 325.111,203.31 387.009,181.925C408.842,174.381 423.491,153.823 423.491,130.723L423.491,127.878C423.491,110.79 415.012,94.815 400.86,85.238C386.707,75.661 368.725,73.73 352.862,80.084C272.263,112.367 145.304,163.219 96.519,182.759C84.433,187.6 76.509,199.309 76.509,212.329L76.509,280.183Z"/>
    </g>
</svg>
