<?xml version="1.0" encoding="UTF-8" standalone="no"?>
<!DOCTYPE svg PUBLIC "-//W3C//DTD SVG 1.1//EN" "http://www.w3.org/Graphics/SVG/1.1/DTD/svg11.dtd">
<svg width="100%" height="100%" viewBox="0 0 1080 1080" version="1.1" xmlns="http://www.w3.org/2000/svg" xmlns:xlink="http://www.w3.org/1999/xlink" xml:space="preserve" xmlns:serif="http://www.serif.com/" style="fill-rule:evenodd;clip-rule:evenodd;stroke-linejoin:round;stroke-miterlimit:2;">
    <g id="Layer1">
        <path d="M1080,0L0,0L0,1080L1080,1080L1080,0ZM416.162,473.882C416.162,473.882 292.324,700.796 292.324,798.044C292.324,866.392 347.814,921.882 416.162,921.882C484.51,921.882 540,866.392 540,798.044C540,700.796 416.162,473.882 416.162,473.882ZM718.081,358.118C718.081,358.118 624.162,530.21 624.162,603.963C624.162,655.799 666.246,697.882 718.081,697.882C769.916,697.882 812,655.799 812,603.963C812,530.21 718.081,358.118 718.081,358.118ZM980.788,166.118C966.174,238.618 886.39,294.118 790.286,294.118C748.85,294.118 710.448,283.801 678.998,266.253C650.966,328.999 573.79,374.118 483.077,374.118C372.592,374.118 282.19,307.189 276.205,223.009C260.641,227.595 243.657,230.118 225.878,230.118C168.183,230.118 118.847,203.544 99.212,166.118L980.788,166.118Z" style="fill:rgb(78,0,255);"/>
    </g>
</svg>
